<?xml version="1.0" encoding="UTF-8" standalone="no"?>
<!DOCTYPE svg PUBLIC "-//W3C//DTD SVG 1.1//EN" "http://www.w3.org/Graphics/SVG/1.1/DTD/svg11.dtd">
<svg width="100%" height="100%" viewBox="0 0 2048 2048" version="1.1" xmlns="http://www.w3.org/2000/svg" xmlns:xlink="http://www.w3.org/1999/xlink" xml:space="preserve" xmlns:serif="http://www.serif.com/" style="fill-rule:evenodd;clip-rule:evenodd;stroke-linecap:round;stroke-linejoin:round;stroke-miterlimit:2;">
    <g id="Layer3">
        <path d="M2048,260.412C2048,116.687 1931.31,0 1787.59,0L260.412,0C116.687,0 0,116.687 0,260.412L0,1787.59C0,1931.31 116.687,2048 260.412,2048L1787.59,2048C1931.31,2048 2048,1931.31 2048,1787.59L2048,260.412Z" style="fill:rgb(145,70,255);"/>
    </g>
    <g id="Layer2" transform="matrix(1.16611,0,0,1.16611,-375.338,-565.811)">
        <g transform="matrix(0.658177,0,0,0.658177,404.963,540.575)">
            <path d="M1582.71,1489.2L1920,1628.63L2104.97,1205.07" style="fill:none;stroke:black;stroke-width:130.29px;"/>
        </g>
        <g transform="matrix(1.32778,0,0,1.32778,-1085.99,-242.207)">
            <circle cx="2166.32" cy="1186.89" r="61.359"/>
        </g>
        <g transform="matrix(0.437908,0,0,0.437908,1272.38,467.527)">
            <path d="M918.259,1412.81C848.057,1483.01 808.618,1578.22 808.618,1677.51C808.618,1884.11 976.353,2051.85 1182.96,2051.85C1389.56,2051.85 1557.3,1884.11 1557.3,1677.51C1557.3,1578.22 1517.86,1483.01 1447.65,1412.81L1315.31,1545.16C1350.41,1580.26 1370.13,1627.87 1370.13,1677.51C1370.13,1780.81 1286.26,1864.67 1182.96,1864.67C1079.65,1864.67 995.787,1780.81 995.787,1677.51C995.787,1627.87 1015.51,1580.26 1050.61,1545.16L918.259,1412.81Z"/>
            <path d="M918.259,1412.81C848.057,1483.01 808.618,1578.22 808.618,1677.51C808.618,1884.11 976.353,2051.85 1182.96,2051.85C1389.56,2051.85 1557.3,1884.11 1557.3,1677.51C1557.3,1578.22 1517.86,1483.01 1447.65,1412.81L1315.31,1545.16C1350.41,1580.26 1370.13,1627.87 1370.13,1677.51C1370.13,1780.81 1286.26,1864.67 1182.96,1864.67C1079.65,1864.67 995.787,1780.81 995.787,1677.51C995.787,1627.87 1015.51,1580.26 1050.61,1545.16L918.259,1412.81Z"/>
        </g>
    </g>
    <g id="Layer21" serif:id="Layer2" transform="matrix(-2.42746e-17,1.16611,-1.16611,-2.42746e-17,2866.88,-373.476)">
        <g transform="matrix(0.658177,0,0,0.658177,466.293,508.435)">
            <path d="M1575.06,1904.86L1920,1628.63L1993.57,1205.07" style="fill:none;stroke:black;stroke-width:130.29px;stroke-linejoin:miter;"/>
        </g>
        <g transform="matrix(1.32778,4.09152e-33,-4.09152e-33,1.32778,-1097.98,-274.347)">
            <circle cx="2166.32" cy="1186.89" r="61.359"/>
        </g>
        <g transform="matrix(0.834737,-0.0445971,0.0445971,0.834737,-129.941,686.226)">
            <circle cx="2166.32" cy="1186.89" r="61.359"/>
        </g>
        <g transform="matrix(0.834737,-0.0445971,0.0445971,0.834737,-413.681,216.399)">
            <circle cx="2166.32" cy="1186.89" r="61.359"/>
        </g>
        <g transform="matrix(0.437908,1.34941e-33,-1.34941e-33,0.437908,1260.39,435.387)">
            <path d="M918.259,1412.81C848.057,1483.01 808.618,1578.22 808.618,1677.51C808.618,1884.11 976.353,2051.85 1182.96,2051.85C1389.56,2051.85 1557.3,1884.11 1557.3,1677.51C1557.3,1578.22 1517.86,1483.01 1447.65,1412.81L1315.31,1545.16C1350.41,1580.26 1370.13,1627.87 1370.13,1677.51C1370.13,1780.81 1286.26,1864.67 1182.96,1864.67C1079.65,1864.67 995.787,1780.81 995.787,1677.51C995.787,1627.87 1015.51,1580.26 1050.61,1545.16L918.259,1412.81Z"/>
            <path d="M918.259,1412.81C848.057,1483.01 808.618,1578.22 808.618,1677.51C808.618,1884.11 976.353,2051.85 1182.96,2051.85C1389.56,2051.85 1557.3,1884.11 1557.3,1677.51C1557.3,1578.22 1517.86,1483.01 1447.65,1412.81L1315.31,1545.16C1350.41,1580.26 1370.13,1627.87 1370.13,1677.51C1370.13,1780.81 1286.26,1864.67 1182.96,1864.67C1079.65,1864.67 995.787,1780.81 995.787,1677.51C995.787,1627.87 1015.51,1580.26 1050.61,1545.16L918.259,1412.81Z"/>
        </g>
    </g>
    <g transform="matrix(1.26794,0,0,1.26794,-391.516,-555.225)">
        <g transform="matrix(0.658177,0,0,0.658177,27.7338,429.678)">
            <path d="M2200,1300L1800,1700L1400,1700L1050,2050L1050,1700L600,1700L600,200L2200,200L2200,1300Z" style="fill:white;fill-rule:nonzero;"/>
            <path d="M2200,1300L1800,1700L1400,1700L1050,2050L1050,1700L600,1700L600,200L2200,200L2200,1300ZM2080.17,1250.37L1750.37,1580.17C1750.37,1580.17 1350.37,1580.17 1350.37,1580.17L1169.83,1760.71C1169.83,1760.71 1169.83,1580.17 1169.83,1580.17L719.828,1580.17C719.828,1580.17 719.828,319.828 719.828,319.828C719.828,319.828 2080.17,319.828 2080.17,319.828C2080.17,319.828 2080.17,1250.37 2080.17,1250.37L2080.17,1250.37Z"/>
        </g>
        <g transform="matrix(0.658177,0,0,0.658177,46.4525,429.678)">
            <g id="Layer_1-2">
                <rect x="1700" y="550" width="200" height="600"/>
                <rect x="1150" y="550" width="200" height="600"/>
            </g>
        </g>
    </g>
</svg>
